<?xml version="1.0" encoding="UTF-8" standalone="no"?>
<!DOCTYPE svg PUBLIC "-//W3C//DTD SVG 1.1//EN" "http://www.w3.org/Graphics/SVG/1.1/DTD/svg11.dtd">
<!-- Created with Vectornator (http://vectornator.io/) -->
<svg height="100%" stroke-miterlimit="10" style="fill-rule:nonzero;clip-rule:evenodd;stroke-linecap:round;stroke-linejoin:round;" version="1.1" viewBox="-3.55271e-14 -3.55271e-14 1024 1024" width="100%" xml:space="preserve" xmlns="http://www.w3.org/2000/svg" xmlns:vectornator="http://vectornator.io" xmlns:xlink="http://www.w3.org/1999/xlink">
<defs/>
<g id="Layer" vectornator:layerName="Layer">
<g opacity="1" vectornator:layerName="metronome">
<path d="M213.334 240.606L213.334 378.055C213.279 364.079 218.794 350.085 230.04 338.948C252.533 317.337 285.396 317.773 307.227 339.384L376.076 408.201L404.169 436.264L494.671 526.704L533.249 565.25L579.76 611.73L533.249 611.73L529.951 611.73L494.671 576.481L386.031 467.935L357.969 439.904L282.307 364.304C281.287 363.256 280.227 362.352 279.134 361.566C277.716 360.546 276.223 359.848 274.716 359.264C274.233 359.077 273.743 358.907 273.254 358.766C271.745 358.328 270.218 357.997 268.68 357.988C267.481 357.981 266.268 358.111 265.071 358.361C263.107 358.774 261.175 359.622 259.285 360.726C257.722 361.64 256.202 362.7 254.743 364.086C253.668 365.161 252.738 366.268 251.943 367.415C251.938 367.421 251.947 367.44 251.943 367.446C251.155 368.585 250.468 369.743 249.952 370.93C249.426 372.134 249.053 373.34 248.8 374.57C248.55 375.792 248.444 377.015 248.458 378.241C248.481 380.705 249.017 383.145 250.076 385.49C250.603 386.658 251.26 387.776 252.036 388.881C252.816 389.995 253.716 391.059 254.743 392.086L337.871 475.059L354.64 491.797L365.934 503.09L474.76 611.73L424.765 611.73L347.827 534.792L319.765 506.73L230.04 417.006C219.014 405.98 213.389 392.031 213.334 378.055L213.334 784.179L810.667 784.179L810.667 706.557L810.667 240.606L513.836 240.606L213.334 240.606ZM546.347 649.188L504.596 691.561L462.285 649.25L546.347 649.188Z" fill="#ffffff" fill-rule="nonzero" opacity="0" stroke="none"/>
<path d="M511.801 1024C792.074 1024 1024 792.074 1024 512.195C1024 231.923 791.683-3.55271e-14 511.41-3.55271e-14C231.53-3.55271e-14-3.55271e-14 231.923-3.55271e-14 512.195C-3.55271e-14 792.074 231.923 1024 511.801 1024ZM511.801 950.882C268.873 950.882 73.5077 755.126 73.5077 512.195C73.5077 268.873 268.48 73.5077 511.41 73.5077C754.732 73.5077 950.491 268.873 950.491 512.195C950.491 755.126 755.126 950.882 511.801 950.882Z" fill="#ffffff" fill-rule="nonzero" opacity="1" stroke="none" vectornator:layerName="path"/>
<g opacity="1" vectornator:layerName="Group 1">
<path d="M513.836 206.473C489.358 206.473 465.105 218.613 450.991 243.09L376.076 374.068L404.169 402.13L484.529 261.601C491.145 249.914 502.591 245.268 513.836 245.268C525.083 245.268 536.557 249.914 543.174 261.601L723.618 577.597L744.898 614.899L765.68 651.268C769.648 658.325 771.404 665.589 771.404 672.206C771.404 690.729 758.174 707.268 736.342 707.268L291.329 707.268C269.498 707.268 256.516 690.729 256.516 672.206C256.516 665.589 258.056 658.106 261.805 651.05L282.245 615.272L303.805 577.597L347.827 500.659L319.765 472.597L228.049 632.943C220.552 645.733 217.254 659.191 217.254 672.423C217.254 713.219 244.805 745.41 290.894 745.41L737.027 745.41C782.896 745.41 810.667 713.219 810.667 672.423C810.667 659.191 806.929 645.514 799.653 632.943L576.68 243.09C562.788 218.613 538.535 206.473 513.836 206.473Z" fill="#ffffff" fill-rule="nonzero" opacity="1" stroke="none"/>
<path d="M513.836 322.019C501.929 322.019 494.671 330.178 494.671 342.086L494.671 492.57L533.249 531.117L533.249 342.086C533.249 330.178 525.964 322.019 513.836 322.019Z" fill="#ffffff" fill-rule="nonzero" opacity="1" stroke="none"/>
<path d="M263.557 615.312L764.798 614.87L741.864 577.602L286.491 577.602L263.557 615.312Z" fill="#ffffff" fill-rule="nonzero" opacity="1" stroke="none" vectornator:layerName="path"/>
<path d="M504.586 607.373L531.929 579.586L282.302 330.18C274.142 321.8 263.337 321.8 254.737 329.96C246.136 338.56 246.578 349.806 254.737 357.965L504.586 607.373Z" fill="#ffffff" fill-rule="nonzero" opacity="1" stroke="none" vectornator:layerName="path"/>
</g>
</g>
</g>
</svg>
