<?xml version="1.0" encoding="UTF-8"?>
<!--Generator: Apple Native CoreSVG 232.5-->
<!DOCTYPE svg
PUBLIC "-//W3C//DTD SVG 1.1//EN"
       "http://www.w3.org/Graphics/SVG/1.1/DTD/svg11.dtd">
<svg version="1.1" xmlns="http://www.w3.org/2000/svg" xmlns:xlink="http://www.w3.org/1999/xlink" width="23.6719" height="18.3672">
 <g>
  <rect height="18.3672" opacity="0" width="23.6719" x="0" y="0"/>
  <path d="M7.69531 0.992188L4.35156 0.992188L4.35156 9.8125C4.35156 10.4844 4.77344 10.75 5.21875 10.75L6.82812 10.75C7.27344 10.75 7.69531 10.4844 7.69531 9.8125ZM13.5078 0.992188L10.1641 0.992188L10.1641 9.8125C10.1641 10.4844 10.5859 10.75 11.0312 10.75L12.6328 10.75C13.0859 10.75 13.5078 10.4844 13.5078 9.8125ZM19.3203 0.992188L15.9688 0.992188L15.9688 9.8125C15.9688 10.4844 16.3984 10.75 16.8438 10.75L18.4453 10.75C18.8984 10.75 19.3203 10.4844 19.3203 9.8125ZM5.60156 8.94531L5.60156 17.4297L6.44531 17.4297L6.44531 8.94531ZM11.4141 8.94531L11.4141 17.4297L12.2578 17.4297L12.2578 8.94531ZM17.2188 8.94531L17.2188 17.4297L18.0703 17.4297L18.0703 8.94531ZM3.03906 18.3672L20.625 18.3672C22.6484 18.3672 23.6719 17.3438 23.6719 15.3594L23.6719 3.01562C23.6719 1.02344 22.6484 0 20.625 0L3.03906 0C1.02344 0 0 1.01562 0 3.01562L0 15.3594C0 17.3594 1.02344 18.3672 3.03906 18.3672ZM3.07031 16.9844C1.97656 16.9844 1.38281 16.4062 1.38281 15.2812L1.38281 3.08594C1.38281 1.96875 1.97656 1.38281 3.07031 1.38281L20.6016 1.38281C21.6719 1.38281 22.2812 1.96875 22.2812 3.08594L22.2812 15.2812C22.2812 16.4062 21.6719 16.9844 20.6016 16.9844Z" fill="#ffffff" fill-opacity="0.85"/>
 </g>
</svg>
